<?xml version="1.0" encoding="UTF-8" standalone="no" ?>
<!DOCTYPE svg PUBLIC "-//W3C//DTD SVG 1.1//EN" "http://www.w3.org/Graphics/SVG/1.1/DTD/svg11.dtd">
<svg xmlns="http://www.w3.org/2000/svg" xmlns:xlink="http://www.w3.org/1999/xlink" version="1.1" width="1080" height="1080" viewBox="0 0 1080 1080" xml:space="preserve">
<desc>Created with Fabric.js 5.2.4</desc>
<defs>
</defs>
<g transform="matrix(1 0 0 1 540 540)" id="684bd105-a209-491a-9636-0d38078f8746"  >
<rect style="stroke: none; stroke-width: 1; stroke-dasharray: none; stroke-linecap: butt; stroke-dashoffset: 0; stroke-linejoin: miter; stroke-miterlimit: 4; fill: rgb(247,247,247); fill-rule: nonzero; opacity: 1;" vector-effect="non-scaling-stroke"  x="-540" y="-540" rx="0" ry="0" width="1080" height="1080" />
</g>
<g transform="matrix(1 0 0 1 540 540)" id="b4164e87-f25a-4f0f-9192-c28bc1bf5c2c"  >
</g>
<g transform="matrix(1 0 0 1 540 540)"  >
<g style="" vector-effect="non-scaling-stroke"   >
		<g transform="matrix(0.13 0 0 -0.13 0 0)"  >
<path style="stroke: none; stroke-width: 1; stroke-dasharray: none; stroke-linecap: butt; stroke-dashoffset: 0; stroke-linejoin: miter; stroke-miterlimit: 4; fill: rgb(0,0,0); fill-rule: nonzero; opacity: 1;" vector-effect="non-scaling-stroke"  transform=" translate(-3747.5, -3745.88)" d="M 250 7364 C 195 7340 152 7302 127 7257 L 105 7215 L 105 3750 L 105 285 L 127 245 C 154 194 194 156 245 133 C 283 116 434 115 3715 112 C 6002 111 7163 113 7199 120 C 7273 134 7323 169 7360 233 L 7390 285 L 7390 3745 C 7390 7071 7389 7207 7371 7245 C 7348 7296 7282 7356 7233 7369 C 7207 7377 6146 7380 3740 7380 C 692 7379 281 7377 250 7364 z M 7227 7254 C 7242 7243 7263 7218 7272 7199 C 7289 7167 7290 6981 7290 3751 C 7290 369 7290 336 7270 295 C 7259 273 7237 247 7221 237 C 7194 221 6993 220 3742 220 L 292 220 L 261 246 C 244 260 226 288 220 308 C 212 334 210 1379 212 3772 L 215 7198 L 240 7225 C 254 7240 279 7259 295 7266 C 320 7277 912 7279 3762 7277 L 7199 7275 L 7227 7254 z" stroke-linecap="round" />
</g>
		<g transform="matrix(0.13 0 0 -0.13 0.53 0.04)"  >
<path style="stroke: none; stroke-width: 1; stroke-dasharray: none; stroke-linecap: butt; stroke-dashoffset: 0; stroke-linejoin: miter; stroke-miterlimit: 4; fill: rgb(0,0,0); fill-rule: nonzero; opacity: 1;" vector-effect="non-scaling-stroke"  transform=" translate(-3751.5, -3745.59)" d="M 2184 6048 C 2031 5887 1800 5646 1671 5511 C 1542 5375 1393 5220 1340 5165 C 1062 4877 825 4627 822 4619 C 820 4614 1502 4610 2477 4610 C 4296 4610 4249 4611 4407 4550 C 4522 4506 4625 4434 4725 4328 C 4796 4253 4821 4217 4861 4135 C 4932 3989 4952 3903 4953 3745 C 4954 3602 4937 3519 4881 3396 C 4792 3198 4590 3009 4400 2944 C 4226 2885 4269 2887 3327 2883 L 2459 2879 L 2356 2772 C 2300 2713 2149 2555 2020 2420 C 1891 2285 1697 2083 1589 1970 C 1029 1385 820 1164 820 1157 C 820 1144 4241 1155 4340 1168 C 4917 1248 5341 1423 5732 1743 C 6170 2100 6475 2579 6614 3130 C 6668 3341 6683 3469 6683 3705 C 6683 4240 6562 4680 6295 5117 C 6168 5324 5949 5576 5755 5738 C 5626 5847 5386 6001 5230 6077 C 4954 6212 4607 6307 4315 6330 C 4249 6335 3805 6340 3329 6340 L 2464 6340 L 2184 6048 z M 4348 6009 C 4401 6003 4497 5987 4560 5973 C 5265 5818 5823 5383 6135 4745 C 6290 4428 6355 4161 6367 3790 C 6373 3593 6363 3469 6329 3300 C 6202 2679 5810 2126 5270 1806 C 5001 1647 4751 1552 4485 1510 C 4251 1473 4118 1469 3440 1472 L 2785 1475 L 2983 1676 L 3181 1878 L 3698 1883 C 4343 1889 4429 1898 4705 1991 C 4923 2065 5195 2229 5363 2390 C 5827 2829 6030 3415 5934 4035 C 5904 4223 5858 4372 5770 4555 C 5537 5038 5123 5384 4590 5539 C 4388 5598 4337 5602 3739 5607 L 3193 5612 L 2992 5813 C 2881 5923 2790 6015 2790 6017 C 2790 6026 4262 6019 4348 6009 z M 2683 5675 L 2880 5474 L 2610 5205 L 2340 4935 L 1957 4930 C 1747 4927 1571 4928 1567 4931 C 1562 4935 1657 5041 1777 5166 C 1898 5292 2099 5504 2226 5637 C 2352 5770 2462 5878 2470 5877 C 2478 5876 2574 5785 2683 5675 z M 4315 5325 C 4545 5292 4781 5199 4985 5062 C 5348 4818 5591 4436 5666 3992 C 5687 3867 5687 3617 5667 3495 C 5610 3158 5460 2870 5214 2627 C 5086 2501 4967 2416 4805 2335 C 4665 2265 4538 2219 4395 2187 C 4312 2168 4263 2166 3750 2163 L 3194 2159 L 2992 2357 C 2880 2466 2792 2559 2796 2563 C 2800 2567 3105 2570 3474 2570 C 4217 2571 4289 2575 4450 2629 C 4944 2795 5270 3237 5270 3739 C 5270 4256 4943 4712 4465 4863 C 4267 4925 4299 4923 3520 4927 C 3127 4929 2801 4930 2795 4930 C 2790 4930 2877 5022 2990 5135 L 3195 5340 L 3705 5340 C 4097 5340 4238 5336 4315 5325 z M 2680 2224 L 2884 2019 L 2609 1744 L 2335 1470 L 1947 1470 L 1559 1470 L 1574 1492 C 1582 1504 1667 1595 1763 1694 C 1858 1794 2055 2000 2200 2152 C 2346 2305 2468 2430 2471 2430 C 2474 2430 2568 2337 2680 2224 z" stroke-linecap="round" />
</g>
</g>
</g>
</svg>